<svg xmlns="http://www.w3.org/2000/svg" height="512" viewBox="0 0 512 512" width="512">
    <g id="Flat">
        <path d="m488 72a16 16 0 0 1 -16 16h-146.74a47.193 47.193 0 0 1 -5.26 10.51 47.9 47.9 0 0 1 -40 21.49h-48a48 48 0 1 1 0-96h48a47.982 47.982 0 0 1 45.26 32h146.74a15.979 15.979 0 0 1 16 16z"
              fill="#92563a"/>
        <g fill="#7a432a">
            <path d="m232 24v48a8 8 0 0 1 -16 0v-45.27a47.873 47.873 0 0 1 16-2.73z"/>
            <path d="m256 80a8 8 0 0 1 -8-8v-48h16v48a8 8 0 0 1 -8 8z"/>
            <path d="m296 26.74v45.26a8 8 0 0 1 -16 0v-48a47.628 47.628 0 0 1 16 2.74z"/>
        </g>
        <path d="m408 323.14a110.853 110.853 0 0 1 -7.56 40.3l-46.46 119.46a7.992 7.992 0 0 1 -7.45 5.1h-181.06a7.992 7.992 0 0 1 -7.45-5.1l-38.96-100.18-7.5-19.28a111.174 111.174 0 0 1 31.27-124.72l17.17-14.72v-40h192v40l13.96 11.97 3.21 2.75a111.144 111.144 0 0 1 38.83 84.42z"
              fill="#fae890"/>
        <path d="m408 323.14a110.853 110.853 0 0 1 -7.56 40.3l-46.46 119.46a7.992 7.992 0 0 1 -7.45 5.1h-181.06a7.992 7.992 0 0 1 -7.45-5.1l-38.96-100.18c91.07-19.35 179.39-63.72 246.9-146.75l3.21 2.75a111.144 111.144 0 0 1 38.83 84.42z"
              fill="#f5df73"/>
        <path d="m408 323.14a110.853 110.853 0 0 1 -7.56 40.3l-46.46 119.46a7.992 7.992 0 0 1 -7.45 5.1h-181.06a7.992 7.992 0 0 1 -7.45-5.1l-38.96-100.18-7.5-19.28a111.232 111.232 0 0 1 -4.2-67.44h108.64a24.006 24.006 0 0 0 24-24v-152h-8a48.06 48.06 0 0 1 -45.27-32h138.53a47.193 47.193 0 0 1 -5.26 10.51 47.9 47.9 0 0 1 -40 21.49h-8v152a24.006 24.006 0 0 0 24 24h108.64a111.286 111.286 0 0 1 3.36 27.14z"
              fill="#ffb531"/>
        <path d="m408 323.14a110.853 110.853 0 0 1 -7.56 40.3l-46.46 119.46a7.992 7.992 0 0 1 -7.45 5.1h-181.06a7.992 7.992 0 0 1 -7.45-5.1l-38.96-100.18c66.02-14.03 130.58-41.2 186.83-86.72h98.75a111.286 111.286 0 0 1 3.36 27.14z"
              fill="#ffa912"/>
        <path d="m340 216h-144a12 12 0 0 0 0 24h144a12 12 0 0 0 0-24z" fill="#f5df73"/>
        <path d="m240 216h32v24h-32z" fill="#edd561"/>
        <path d="m144 323.14a70.831 70.831 0 0 1 5.381-27.14h-17.03c-.633 1.931-1.22 3.878-1.715 5.85a87.225 87.225 0 0 0 3.293 52.891l15.617 40.159 14.912-5.8-15.618-40.16a70.847 70.847 0 0 1 -4.84-25.8z"
              fill="#ffcb73"/>
        <path d="m168.853 269.1 8.193-7.024-10.414-12.147-8.19 7.021c-1.371 1.174-2.72 2.4-4.01 3.653l11.136 11.489c1.055-1.025 2.159-2.03 3.285-2.992z"
              fill="#ffef9e"/>
        <path d="m150.5 293.425a71.567 71.567 0 0 1 7.886-13.214l-12.765-9.645a87.571 87.571 0 0 0 -9.653 16.164 86 86 0 0 0 -3.613 9.27h17.03c.354-.866.715-1.727 1.115-2.575z"
              fill="#ffef9e"/>
    </g>
</svg>